<svg xmlns="http://www.w3.org/2000/svg"
viewBox = "0 0 600 600"
width="600"
height="600">
<g fill="None" fill-opacity="0.0" stroke="#10A28A" stroke-opacity="1.00" stroke-width="0.3"><path d="
M 0.00 600.00 
L 275.00 600.00
C 218.77 539.42 155.25 484.08 99.00 425.00
C 64.72 408.05 45.01 375.46 35.01 338.99 C 25.00 302.52 35.01 253.59 61.30 223.30 C 87.59 193.02 121.85 176.43 163.00 175.00 C 204.15 173.57 237.41 194.69 266.00 223.00
C 279.64 236.51 292.99 252.30 308.00 264.00
C 315.62 241.73 321.49 217.06 330.31 195.31 C 339.12 173.55 379.50 169.10 393.00 188.00
C 397.18 191.72 401.74 196.57 405.75 201.25 C 409.77 205.93 414.82 209.64 418.75 214.25 C 422.69 218.85 428.16 222.54 431.75 227.25 C 435.34 231.96 442.00 235.18 444.75 240.25 C 447.50 245.31 457.35 248.41 459.00 253.00
C 462.13 240.75 469.31 222.65 472.78 210.78 C 476.24 198.90 480.82 176.99 497.07 178.07 C 513.33 179.15 538.07 172.72 552.00 180.00
C 570.86 189.85 582.12 214.17 600.00 226.00
L 600.00 0.00
L 0.00 0.00
L 0.00 600.00 Z"/>
</g>
<g fill="None" fill-opacity="0.0" stroke="#F78926" stroke-opacity="1.00" stroke-width="0.3"><path d="
M 99.00 425.00 
C 123.24 436.99 154.01 443.99 181.67 440.67 C 209.33 437.35 228.77 425.44 251.00 411.00
C 253.41 419.95 254.62 439.94 268.00 439.00 C 281.38 438.06 299.83 442.29 311.23 436.23 C 322.63 430.17 322.18 417.28 326.78 406.78 C 331.37 396.27 334.22 383.56 338.77 372.77 C 343.32 361.98 345.42 349.88 349.98 338.98 C 354.53 328.07 357.00 315.84 362.00 305.00
C 370.13 318.29 374.52 335.87 380.78 350.22 C 387.03 364.58 392.23 383.75 398.78 397.22 C 405.32 410.70 406.76 433.78 423.02 437.98 C 439.29 442.17 467.32 442.66 474.32 426.32 C 481.32 409.99 484.74 395.13 490.78 378.78 C 496.81 362.42 500.38 345.39 505.99 328.99 C 511.60 312.59 516.77 296.45 521.93 279.93 C 527.09 263.40 532.40 246.98 537.32 230.32 C 542.24 213.66 549.29 197.31 552.00 180.00
C 538.07 172.72 513.33 179.15 497.07 178.07 C 480.82 176.99 476.24 198.90 472.78 210.78 C 469.31 222.65 462.13 240.75 459.00 253.00
C 453.60 274.14 447.49 295.12 441.00 316.00
C 423.20 274.39 412.52 229.18 393.00 188.00
C 379.50 169.10 339.12 173.55 330.31 195.31 C 321.49 217.06 315.62 241.73 308.00 264.00
C 304.24 274.98 301.36 286.23 297.00 297.00
C 292.64 270.74 283.22 244.46 266.00 223.00
C 237.41 194.69 204.15 173.57 163.00 175.00 C 121.85 176.43 87.59 193.02 61.30 223.30 C 35.01 253.59 25.00 302.52 35.01 338.99 C 45.01 375.46 64.72 408.05 99.00 425.00
M 174.00 244.00 
C 220.24 250.61 242.83 311.67 214.08 348.08 C 185.33 384.49 125.98 380.01 106.69 335.31 C 87.41 290.60 122.16 236.59 174.00 244.00 Z"/>
</g>
<g fill="None" fill-opacity="0.0" stroke="#078370" stroke-opacity="1.00" stroke-width="0.3"><path d="
M 99.00 425.00 
C 155.25 484.08 218.77 539.42 275.00 600.00
L 600.00 600.00
L 600.00 226.00
C 582.12 214.17 570.86 189.85 552.00 180.00
C 549.29 197.31 542.24 213.66 537.32 230.32 C 532.40 246.98 527.09 263.40 521.93 279.93 C 516.77 296.45 511.60 312.59 505.99 328.99 C 500.38 345.39 496.81 362.42 490.78 378.78 C 484.74 395.13 481.32 409.99 474.32 426.32 C 467.32 442.66 439.29 442.17 423.02 437.98 C 406.76 433.78 405.32 410.70 398.78 397.22 C 392.23 383.75 387.03 364.58 380.78 350.22 C 374.52 335.87 370.13 318.29 362.00 305.00
C 357.00 315.84 354.53 328.07 349.98 338.98 C 345.42 349.88 343.32 361.98 338.77 372.77 C 334.22 383.56 331.37 396.27 326.78 406.78 C 322.18 417.28 322.63 430.17 311.23 436.23 C 299.83 442.29 281.38 438.06 268.00 439.00 C 254.62 439.94 253.41 419.95 251.00 411.00
C 228.77 425.44 209.33 437.35 181.67 440.67 C 154.01 443.99 123.24 436.99 99.00 425.00 Z"/>
</g>
<g fill="None" fill-opacity="0.0" stroke="#078370" stroke-opacity="1.00" stroke-width="0.3"><path d="
M 459.00 253.00 
C 457.35 248.41 447.50 245.31 444.75 240.25 C 442.00 235.18 435.34 231.96 431.75 227.25 C 428.16 222.54 422.69 218.85 418.75 214.25 C 414.82 209.64 409.77 205.93 405.75 201.25 C 401.74 196.57 397.18 191.72 393.00 188.00
C 412.52 229.18 423.20 274.39 441.00 316.00
C 447.49 295.12 453.60 274.14 459.00 253.00 Z"/>
</g>
<g fill="None" fill-opacity="0.0" stroke="#078370" stroke-opacity="1.00" stroke-width="0.3"><path d="
M 308.00 264.00 
C 292.99 252.30 279.64 236.51 266.00 223.00
C 283.22 244.46 292.64 270.74 297.00 297.00
C 301.36 286.23 304.24 274.98 308.00 264.00 Z"/>
</g>
<g fill="None" fill-opacity="0.0" stroke="#078370" stroke-opacity="1.00" stroke-width="0.3"><path d="
M 174.00 244.00 
C 122.16 236.59 87.41 290.60 106.69 335.31 C 125.98 380.01 185.33 384.49 214.08 348.08 C 242.83 311.67 220.24 250.61 174.00 244.00 Z"/>
</g>
<g fill="#10A28A" fill-opacity="1.00" stroke="None">
<path d="
M 0.00 600.00 
L 275.00 600.00
C 218.77 539.42 155.25 484.08 99.00 425.00
C 64.72 408.05 45.01 375.46 35.01 338.99 C 25.00 302.52 35.01 253.59 61.30 223.30 C 87.59 193.02 121.85 176.43 163.00 175.00 C 204.15 173.57 237.41 194.69 266.00 223.00
C 279.64 236.51 292.99 252.30 308.00 264.00
C 315.62 241.73 321.49 217.06 330.31 195.31 C 339.12 173.55 379.50 169.10 393.00 188.00
C 397.18 191.72 401.74 196.57 405.75 201.25 C 409.77 205.93 414.82 209.64 418.75 214.25 C 422.69 218.85 428.16 222.54 431.75 227.25 C 435.34 231.96 442.00 235.18 444.75 240.25 C 447.50 245.31 457.35 248.41 459.00 253.00
C 462.13 240.75 469.31 222.65 472.78 210.78 C 476.24 198.90 480.82 176.99 497.07 178.07 C 513.33 179.15 538.07 172.72 552.00 180.00
C 570.86 189.85 582.12 214.17 600.00 226.00
L 600.00 0.00
L 0.00 0.00
L 0.00 600.00 Z"/>
</g>
<g fill="#F78926" fill-opacity="1.00" stroke="None">
<path d="
M 99.00 425.00 
C 123.24 436.99 154.01 443.99 181.67 440.67 C 209.33 437.35 228.77 425.44 251.00 411.00
C 253.41 419.95 254.62 439.94 268.00 439.00 C 281.38 438.06 299.83 442.29 311.23 436.23 C 322.63 430.17 322.18 417.28 326.78 406.78 C 331.37 396.27 334.22 383.56 338.77 372.77 C 343.32 361.98 345.42 349.88 349.98 338.98 C 354.53 328.07 357.00 315.84 362.00 305.00
C 370.13 318.29 374.52 335.87 380.78 350.22 C 387.03 364.58 392.23 383.75 398.78 397.22 C 405.32 410.70 406.76 433.78 423.02 437.98 C 439.29 442.17 467.32 442.66 474.32 426.32 C 481.32 409.99 484.74 395.13 490.78 378.78 C 496.81 362.42 500.38 345.39 505.99 328.99 C 511.60 312.59 516.77 296.45 521.93 279.93 C 527.09 263.40 532.40 246.98 537.32 230.32 C 542.24 213.66 549.29 197.31 552.00 180.00
C 538.07 172.72 513.33 179.15 497.07 178.07 C 480.82 176.99 476.24 198.90 472.78 210.78 C 469.31 222.65 462.13 240.75 459.00 253.00
C 453.60 274.14 447.49 295.12 441.00 316.00
C 423.20 274.39 412.52 229.18 393.00 188.00
C 379.50 169.10 339.12 173.55 330.31 195.31 C 321.49 217.06 315.62 241.73 308.00 264.00
C 304.24 274.98 301.36 286.23 297.00 297.00
C 292.64 270.74 283.22 244.46 266.00 223.00
C 237.41 194.69 204.15 173.57 163.00 175.00 C 121.85 176.43 87.59 193.02 61.30 223.30 C 35.01 253.59 25.00 302.52 35.01 338.99 C 45.01 375.46 64.72 408.05 99.00 425.00
M 174.00 244.00 
C 220.24 250.61 242.83 311.67 214.08 348.08 C 185.33 384.49 125.98 380.01 106.69 335.31 C 87.41 290.60 122.16 236.59 174.00 244.00 Z"/>
</g>
<g fill="#078370" fill-opacity="1.00" stroke="None">
<path d="
M 99.00 425.00 
C 155.25 484.08 218.77 539.42 275.00 600.00
L 600.00 600.00
L 600.00 226.00
C 582.12 214.17 570.86 189.85 552.00 180.00
C 549.29 197.31 542.24 213.66 537.32 230.32 C 532.40 246.98 527.09 263.40 521.93 279.93 C 516.77 296.45 511.60 312.59 505.99 328.99 C 500.38 345.39 496.81 362.42 490.78 378.78 C 484.74 395.13 481.32 409.99 474.32 426.32 C 467.32 442.66 439.29 442.17 423.02 437.98 C 406.76 433.78 405.32 410.70 398.78 397.22 C 392.23 383.75 387.03 364.58 380.78 350.22 C 374.52 335.87 370.13 318.29 362.00 305.00
C 357.00 315.84 354.53 328.07 349.98 338.98 C 345.42 349.88 343.32 361.98 338.77 372.77 C 334.22 383.56 331.37 396.27 326.78 406.78 C 322.18 417.28 322.63 430.17 311.23 436.23 C 299.83 442.29 281.38 438.06 268.00 439.00 C 254.62 439.94 253.41 419.95 251.00 411.00
C 228.77 425.44 209.33 437.35 181.67 440.67 C 154.01 443.99 123.24 436.99 99.00 425.00 Z"/>
</g>
<g fill="#078370" fill-opacity="1.00" stroke="None">
<path d="
M 459.00 253.00 
C 457.35 248.41 447.50 245.31 444.75 240.25 C 442.00 235.18 435.34 231.96 431.75 227.25 C 428.16 222.54 422.69 218.85 418.75 214.25 C 414.82 209.64 409.77 205.93 405.75 201.25 C 401.74 196.57 397.18 191.72 393.00 188.00
C 412.52 229.18 423.20 274.39 441.00 316.00
C 447.49 295.12 453.60 274.14 459.00 253.00 Z"/>
</g>
<g fill="#078370" fill-opacity="1.00" stroke="None">
<path d="
M 308.00 264.00 
C 292.99 252.30 279.64 236.51 266.00 223.00
C 283.22 244.46 292.64 270.74 297.00 297.00
C 301.36 286.23 304.24 274.98 308.00 264.00 Z"/>
</g>
<g fill="#078370" fill-opacity="1.00" stroke="None">
<path d="
M 174.00 244.00 
C 122.16 236.59 87.41 290.60 106.69 335.31 C 125.98 380.01 185.33 384.49 214.08 348.08 C 242.83 311.67 220.24 250.61 174.00 244.00 Z"/>
</g>
</svg>