<svg xmlns="http://www.w3.org/2000/svg"
viewBox = "0 0 1071 974"
width="1071"
height="974">
<g fill="None" fill-opacity="0.0" stroke="#121C22" stroke-opacity="1.00" stroke-width="0.3"><path d="
M 0.00 974.00 
L 1071.00 974.00
L 1071.00 0.00
L 0.00 0.00
L 0.00 974.00
M 965.00 512.00 
C 957.75 603.26 926.68 696.71 868.25 767.25 C 809.81 837.79 741.04 883.14 657.00 909.00
C 617.30 921.22 571.37 926.92 529.00 927.00 C 486.63 927.08 439.63 919.36 401.98 908.02 C 364.32 896.69 334.02 881.33 301.92 862.08 C 269.82 842.83 247.98 823.17 221.25 796.75 C 194.52 770.34 176.43 746.86 157.08 714.92 C 137.72 682.98 123.82 650.93 112.22 613.78 C 100.63 576.62 94.21 525.13 95.00 484.00 C 95.79 442.87 103.89 395.75 115.93 358.93 C 127.96 322.10 142.27 290.63 162.30 259.30 C 182.34 227.98 200.92 204.88 227.75 178.75 C 254.59 152.63 278.41 134.54 310.70 115.70 C 342.98 96.85 375.92 83.12 413.22 72.22 C 450.52 61.32 503.00 54.40 544.00 56.00 C 585.00 57.60 631.38 65.66 668.02 77.98 C 704.67 90.29 735.24 105.71 766.25 125.75 C 797.25 145.80 820.78 164.45 846.25 191.75 C 871.72 219.06 889.65 243.11 908.30 275.70 C 926.95 308.28 940.82 341.26 950.78 379.22 C 960.74 417.19 968.35 469.79 965.00 512.00 Z"/>
</g>
<g fill="None" fill-opacity="0.0" stroke="#00A085" stroke-opacity="1.00" stroke-width="0.3"><path d="
M 657.00 909.00 
C 659.33 906.21 647.95 897.84 644.75 894.25 C 641.55 890.66 633.23 884.42 629.25 879.75 C 625.26 875.09 618.74 869.56 614.25 864.75 C 609.75 859.95 604.50 855.13 599.75 850.25 C 595.00 845.37 589.62 840.18 584.75 835.25 C 579.88 830.32 574.65 825.18 569.75 820.25 C 564.85 815.31 560.17 810.69 555.25 805.75 C 550.33 800.81 545.20 795.71 540.25 790.75 C 535.30 785.80 530.19 780.69 525.25 775.75 C 520.31 770.81 515.70 766.19 510.75 761.25 C 505.81 756.31 500.71 751.20 495.75 746.25 C 490.79 741.29 485.69 736.19 480.75 731.25 C 475.81 726.30 471.19 721.69 466.25 716.75 C 461.30 711.81 456.22 706.69 451.25 701.75 C 446.28 696.81 441.22 691.65 436.25 686.75 C 431.27 681.85 426.76 677.10 421.75 672.25 C 416.74 667.39 411.85 662.02 406.75 657.25 C 401.65 652.47 397.01 646.79 391.75 642.25 C 386.50 637.70 382.91 631.77 377.25 627.75 C 371.58 623.73 367.35 617.65 361.75 613.25 C 356.15 608.84 351.56 602.88 347.00 598.00
C 312.68 581.02 293.03 548.33 283.01 511.99 C 272.99 475.65 283.05 426.60 309.30 396.30 C 335.56 366.01 369.84 349.43 411.00 348.00 C 452.16 346.57 485.41 367.69 514.00 396.00
C 527.59 409.46 541.00 425.34 556.00 437.00
C 563.20 413.27 568.67 391.55 578.31 368.31 C 587.94 345.06 623.90 345.39 641.00 360.00
C 645.59 363.92 649.30 368.99 653.75 373.25 C 658.20 377.51 662.56 381.83 666.75 386.25 C 670.95 390.67 676.43 395.19 680.25 399.75 C 684.07 404.32 690.28 407.92 693.25 412.75 C 696.22 417.59 705.43 421.12 707.00 426.00
C 709.97 413.26 716.69 395.42 720.32 383.32 C 723.96 371.22 728.28 351.38 744.22 351.22 C 760.16 351.06 783.58 347.72 799.00 352.00
C 804.67 353.57 809.68 362.05 815.25 366.75 C 820.81 371.45 826.22 378.11 831.75 383.25 C 837.28 388.39 842.73 394.41 848.25 399.75 C 853.77 405.10 859.23 410.80 864.75 416.25 C 870.27 421.70 876.27 427.80 881.75 433.25 C 887.24 438.70 892.88 444.40 898.25 449.75 C 903.62 455.11 909.58 461.08 914.75 466.25 C 919.92 471.42 926.50 477.99 931.25 482.75 C 936.00 487.51 943.93 495.39 947.75 499.25 C 951.58 503.11 963.05 516.42 965.00 512.00
C 968.35 469.79 960.74 417.19 950.78 379.22 C 940.82 341.26 926.95 308.28 908.30 275.70 C 889.65 243.11 871.72 219.06 846.25 191.75 C 820.78 164.45 797.25 145.80 766.25 125.75 C 735.24 105.71 704.67 90.29 668.02 77.98 C 631.38 65.66 585.00 57.60 544.00 56.00 C 503.00 54.40 450.52 61.32 413.22 72.22 C 375.92 83.12 342.98 96.85 310.70 115.70 C 278.41 134.54 254.59 152.63 227.75 178.75 C 200.92 204.88 182.34 227.98 162.30 259.30 C 142.27 290.63 127.96 322.10 115.93 358.93 C 103.89 395.75 95.79 442.87 95.00 484.00 C 94.21 525.13 100.63 576.62 112.22 613.78 C 123.82 650.93 137.72 682.98 157.08 714.92 C 176.43 746.86 194.52 770.34 221.25 796.75 C 247.98 823.17 269.82 842.83 301.92 862.08 C 334.02 881.33 364.32 896.69 401.98 908.02 C 439.63 919.36 486.63 927.08 529.00 927.00 C 571.37 926.92 617.30 921.22 657.00 909.00 Z"/>
</g>
<g fill="None" fill-opacity="0.0" stroke="#EF8426" stroke-opacity="1.00" stroke-width="0.3"><path d="
M 347.00 598.00 
C 365.96 607.38 386.21 614.00 408.00 614.00
C 412.33 614.00 416.67 614.00 421.00 614.00
C 450.14 614.00 475.96 599.55 499.00 584.00
C 502.20 593.91 501.81 611.58 516.00 612.00
C 520.91 612.45 526.07 612.00 531.00 612.00
C 545.66 612.00 564.24 612.70 568.78 596.78 C 573.31 580.85 577.77 571.80 582.32 557.32 C 586.87 542.84 591.48 531.85 595.93 517.93 C 600.38 504.00 604.98 491.62 610.00 478.00
C 618.24 491.39 622.56 509.65 628.92 524.08 C 635.28 538.51 640.50 557.49 646.93 571.07 C 653.36 584.66 655.17 607.49 671.68 611.32 C 688.19 615.15 715.92 615.55 722.77 598.77 C 729.63 581.99 733.12 566.58 738.98 549.98 C 744.83 533.37 749.39 517.30 754.78 500.78 C 760.17 484.25 765.28 467.83 770.32 451.32 C 775.36 434.81 781.33 418.48 785.93 401.93 C 790.52 385.37 798.93 368.47 799.00 352.00
C 783.58 347.72 760.16 351.06 744.22 351.22 C 728.28 351.38 723.96 371.22 720.32 383.32 C 716.69 395.42 709.97 413.26 707.00 426.00
C 702.07 447.20 695.64 469.19 688.00 489.00
C 672.41 446.04 659.23 401.89 641.00 360.00
C 623.90 345.39 587.94 345.06 578.31 368.31 C 568.67 391.55 563.20 413.27 556.00 437.00
C 552.66 448.01 549.67 460.51 544.00 470.00
C 542.50 442.58 530.13 417.75 514.00 396.00
C 485.41 367.69 452.16 346.57 411.00 348.00 C 369.84 349.43 335.56 366.01 309.30 396.30 C 283.05 426.60 272.99 475.65 283.01 511.99 C 293.03 548.33 312.68 581.02 347.00 598.00
M 422.00 417.00 
C 467.90 424.45 491.20 484.24 462.08 521.08 C 432.97 557.92 374.26 552.34 354.70 508.31 C 335.13 464.27 370.50 408.64 422.00 417.00 Z"/>
</g>
<g fill="None" fill-opacity="0.0" stroke="#007E6B" stroke-opacity="1.00" stroke-width="0.3"><path d="
M 799.00 352.00 
C 798.93 368.47 790.52 385.37 785.93 401.93 C 781.33 418.48 775.36 434.81 770.32 451.32 C 765.28 467.83 760.17 484.25 754.78 500.78 C 749.39 517.30 744.83 533.37 738.98 549.98 C 733.12 566.58 729.63 581.99 722.77 598.77 C 715.92 615.55 688.19 615.15 671.68 611.32 C 655.17 607.49 653.36 584.66 646.93 571.07 C 640.50 557.49 635.28 538.51 628.92 524.08 C 622.56 509.65 618.24 491.39 610.00 478.00
C 604.98 491.62 600.38 504.00 595.93 517.93 C 591.48 531.85 586.87 542.84 582.32 557.32 C 577.77 571.80 573.31 580.85 568.78 596.78 C 564.24 612.70 545.66 612.00 531.00 612.00
C 526.18 612.47 520.85 613.00 516.00 612.00
C 501.81 611.58 502.20 593.91 499.00 584.00
C 475.96 599.55 450.14 614.00 421.00 614.00
C 416.91 614.40 412.02 614.39 408.00 614.00
C 386.21 614.00 365.96 607.38 347.00 598.00
C 351.56 602.88 356.15 608.84 361.75 613.25 C 367.35 617.65 371.58 623.73 377.25 627.75 C 382.91 631.77 386.50 637.70 391.75 642.25 C 397.01 646.79 401.65 652.47 406.75 657.25 C 411.85 662.02 416.74 667.39 421.75 672.25 C 426.76 677.10 431.27 681.85 436.25 686.75 C 441.22 691.65 446.28 696.81 451.25 701.75 C 456.22 706.69 461.30 711.81 466.25 716.75 C 471.19 721.69 475.81 726.30 480.75 731.25 C 485.69 736.19 490.79 741.29 495.75 746.25 C 500.71 751.20 505.81 756.31 510.75 761.25 C 515.70 766.19 520.31 770.81 525.25 775.75 C 530.19 780.69 535.30 785.80 540.25 790.75 C 545.20 795.71 550.33 800.81 555.25 805.75 C 560.17 810.69 564.85 815.31 569.75 820.25 C 574.65 825.18 579.88 830.32 584.75 835.25 C 589.62 840.18 595.00 845.37 599.75 850.25 C 604.50 855.13 609.75 859.95 614.25 864.75 C 618.74 869.56 625.26 875.09 629.25 879.75 C 633.23 884.42 641.55 890.66 644.75 894.25 C 647.95 897.84 659.33 906.21 657.00 909.00
C 741.04 883.14 809.81 837.79 868.25 767.25 C 926.68 696.71 957.75 603.26 965.00 512.00
C 963.05 516.42 951.58 503.11 947.75 499.25 C 943.93 495.39 936.00 487.51 931.25 482.75 C 926.50 477.99 919.92 471.42 914.75 466.25 C 909.58 461.08 903.62 455.11 898.25 449.75 C 892.88 444.40 887.24 438.70 881.75 433.25 C 876.27 427.80 870.27 421.70 864.75 416.25 C 859.23 410.80 853.77 405.10 848.25 399.75 C 842.73 394.41 837.28 388.39 831.75 383.25 C 826.22 378.11 820.81 371.45 815.25 366.75 C 809.68 362.05 804.67 353.57 799.00 352.00 Z"/>
</g>
<g fill="None" fill-opacity="0.0" stroke="#007E6B" stroke-opacity="1.00" stroke-width="0.3"><path d="
M 707.00 426.00 
C 705.43 421.12 696.22 417.59 693.25 412.75 C 690.28 407.92 684.07 404.32 680.25 399.75 C 676.43 395.19 670.95 390.67 666.75 386.25 C 662.56 381.83 658.20 377.51 653.75 373.25 C 649.30 368.99 645.59 363.92 641.00 360.00
C 659.23 401.89 672.41 446.04 688.00 489.00
C 695.64 469.19 702.07 447.20 707.00 426.00 Z"/>
</g>
<g fill="None" fill-opacity="0.0" stroke="#007E6B" stroke-opacity="1.00" stroke-width="0.3"><path d="
M 556.00 437.00 
C 541.00 425.34 527.59 409.46 514.00 396.00
C 530.13 417.75 542.50 442.58 544.00 470.00
C 549.67 460.51 552.66 448.01 556.00 437.00 Z"/>
</g>
<g fill="None" fill-opacity="0.0" stroke="#007E6B" stroke-opacity="1.00" stroke-width="0.3"><path d="
M 422.00 417.00 
C 370.50 408.64 335.13 464.27 354.70 508.31 C 374.26 552.34 432.97 557.92 462.08 521.08 C 491.20 484.24 467.90 424.45 422.00 417.00 Z"/>
</g>
<g fill="None" fill-opacity="0.0" stroke="#00A085" stroke-opacity="1.00" stroke-width="0.3"><path d="
M 531.00 612.00 
C 526.07 612.00 520.91 612.45 516.00 612.00
C 520.85 613.00 526.18 612.47 531.00 612.00 Z"/>
</g>
<g fill="None" fill-opacity="0.0" stroke="#00A085" stroke-opacity="1.00" stroke-width="0.3"><path d="
M 421.00 614.00 
C 416.67 614.00 412.33 614.00 408.00 614.00
C 412.02 614.39 416.91 614.40 421.00 614.00 Z"/>
</g>
<g fill="#121C22" fill-opacity="1.00" stroke="None">
<path d="
M 0.00 974.00 
L 1071.00 974.00
L 1071.00 0.00
L 0.00 0.00
L 0.00 974.00
M 965.00 512.00 
C 957.75 603.26 926.68 696.71 868.25 767.25 C 809.81 837.79 741.04 883.14 657.00 909.00
C 617.30 921.22 571.37 926.92 529.00 927.00 C 486.63 927.08 439.63 919.36 401.98 908.02 C 364.32 896.69 334.02 881.33 301.92 862.08 C 269.82 842.83 247.98 823.17 221.25 796.75 C 194.52 770.34 176.43 746.86 157.08 714.92 C 137.72 682.98 123.82 650.93 112.22 613.78 C 100.63 576.62 94.21 525.13 95.00 484.00 C 95.79 442.87 103.89 395.75 115.93 358.93 C 127.96 322.10 142.27 290.63 162.30 259.30 C 182.34 227.98 200.92 204.88 227.75 178.75 C 254.59 152.63 278.41 134.54 310.70 115.70 C 342.98 96.85 375.92 83.12 413.22 72.22 C 450.52 61.32 503.00 54.40 544.00 56.00 C 585.00 57.60 631.38 65.66 668.02 77.98 C 704.67 90.29 735.24 105.71 766.25 125.75 C 797.25 145.80 820.78 164.45 846.25 191.75 C 871.72 219.06 889.65 243.11 908.30 275.70 C 926.95 308.28 940.82 341.26 950.78 379.22 C 960.74 417.19 968.35 469.79 965.00 512.00 Z"/>
</g>
<g fill="#00A085" fill-opacity="1.00" stroke="None">
<path d="
M 657.00 909.00 
C 659.33 906.21 647.95 897.84 644.75 894.25 C 641.55 890.66 633.23 884.42 629.25 879.75 C 625.26 875.09 618.74 869.56 614.25 864.75 C 609.75 859.95 604.50 855.13 599.75 850.25 C 595.00 845.37 589.62 840.18 584.75 835.25 C 579.88 830.32 574.65 825.18 569.75 820.25 C 564.85 815.31 560.17 810.69 555.25 805.75 C 550.33 800.81 545.20 795.71 540.25 790.75 C 535.30 785.80 530.19 780.69 525.25 775.75 C 520.31 770.81 515.70 766.19 510.75 761.25 C 505.81 756.31 500.71 751.20 495.75 746.25 C 490.79 741.29 485.69 736.19 480.75 731.25 C 475.81 726.30 471.19 721.69 466.25 716.75 C 461.30 711.81 456.22 706.69 451.25 701.75 C 446.28 696.81 441.22 691.65 436.25 686.75 C 431.27 681.85 426.76 677.10 421.75 672.25 C 416.74 667.39 411.85 662.02 406.75 657.25 C 401.65 652.47 397.01 646.79 391.75 642.25 C 386.50 637.70 382.91 631.77 377.25 627.75 C 371.58 623.73 367.35 617.65 361.75 613.25 C 356.15 608.84 351.56 602.88 347.00 598.00
C 312.68 581.02 293.03 548.33 283.01 511.99 C 272.99 475.65 283.05 426.60 309.30 396.30 C 335.56 366.01 369.84 349.43 411.00 348.00 C 452.16 346.57 485.41 367.69 514.00 396.00
C 527.59 409.46 541.00 425.34 556.00 437.00
C 563.20 413.27 568.67 391.55 578.31 368.31 C 587.94 345.06 623.90 345.39 641.00 360.00
C 645.59 363.92 649.30 368.99 653.75 373.25 C 658.20 377.51 662.56 381.83 666.75 386.25 C 670.95 390.67 676.43 395.19 680.25 399.75 C 684.07 404.32 690.28 407.92 693.25 412.75 C 696.22 417.59 705.43 421.12 707.00 426.00
C 709.97 413.26 716.69 395.42 720.32 383.32 C 723.96 371.22 728.28 351.38 744.22 351.22 C 760.16 351.06 783.58 347.72 799.00 352.00
C 804.67 353.57 809.68 362.05 815.25 366.75 C 820.81 371.45 826.22 378.11 831.75 383.25 C 837.28 388.39 842.73 394.41 848.25 399.75 C 853.77 405.10 859.23 410.80 864.75 416.25 C 870.27 421.70 876.27 427.80 881.75 433.25 C 887.24 438.70 892.88 444.40 898.25 449.75 C 903.62 455.11 909.58 461.08 914.75 466.25 C 919.92 471.42 926.50 477.99 931.25 482.75 C 936.00 487.51 943.93 495.39 947.75 499.25 C 951.58 503.11 963.05 516.42 965.00 512.00
C 968.35 469.79 960.74 417.19 950.78 379.22 C 940.82 341.26 926.95 308.28 908.30 275.70 C 889.65 243.11 871.72 219.06 846.25 191.75 C 820.78 164.45 797.25 145.80 766.25 125.75 C 735.24 105.71 704.67 90.29 668.02 77.98 C 631.38 65.66 585.00 57.60 544.00 56.00 C 503.00 54.40 450.52 61.32 413.22 72.22 C 375.92 83.12 342.98 96.85 310.70 115.70 C 278.41 134.54 254.59 152.63 227.75 178.75 C 200.92 204.88 182.34 227.98 162.30 259.30 C 142.27 290.63 127.96 322.10 115.93 358.93 C 103.89 395.75 95.79 442.87 95.00 484.00 C 94.21 525.13 100.63 576.62 112.22 613.78 C 123.82 650.93 137.72 682.98 157.08 714.92 C 176.43 746.86 194.52 770.34 221.25 796.75 C 247.98 823.17 269.82 842.83 301.92 862.08 C 334.02 881.33 364.32 896.69 401.98 908.02 C 439.63 919.36 486.63 927.08 529.00 927.00 C 571.37 926.92 617.30 921.22 657.00 909.00 Z"/>
</g>
<g fill="#EF8426" fill-opacity="1.00" stroke="None">
<path d="
M 347.00 598.00 
C 365.96 607.38 386.21 614.00 408.00 614.00
C 412.33 614.00 416.67 614.00 421.00 614.00
C 450.14 614.00 475.96 599.55 499.00 584.00
C 502.20 593.91 501.81 611.58 516.00 612.00
C 520.91 612.45 526.07 612.00 531.00 612.00
C 545.66 612.00 564.24 612.70 568.78 596.78 C 573.31 580.85 577.77 571.80 582.32 557.32 C 586.87 542.84 591.48 531.85 595.93 517.93 C 600.38 504.00 604.98 491.62 610.00 478.00
C 618.24 491.39 622.56 509.65 628.92 524.08 C 635.28 538.51 640.50 557.49 646.93 571.07 C 653.36 584.66 655.17 607.49 671.68 611.32 C 688.19 615.15 715.92 615.55 722.77 598.77 C 729.63 581.99 733.12 566.58 738.98 549.98 C 744.83 533.37 749.39 517.30 754.78 500.78 C 760.17 484.25 765.28 467.83 770.32 451.32 C 775.36 434.81 781.33 418.48 785.93 401.93 C 790.52 385.37 798.93 368.47 799.00 352.00
C 783.58 347.72 760.16 351.06 744.22 351.22 C 728.28 351.38 723.96 371.22 720.32 383.32 C 716.69 395.42 709.97 413.26 707.00 426.00
C 702.07 447.20 695.64 469.19 688.00 489.00
C 672.41 446.04 659.23 401.89 641.00 360.00
C 623.90 345.39 587.94 345.06 578.31 368.31 C 568.67 391.55 563.20 413.27 556.00 437.00
C 552.66 448.01 549.67 460.51 544.00 470.00
C 542.50 442.58 530.13 417.75 514.00 396.00
C 485.41 367.69 452.16 346.57 411.00 348.00 C 369.84 349.43 335.56 366.01 309.30 396.30 C 283.05 426.60 272.99 475.65 283.01 511.99 C 293.03 548.33 312.68 581.02 347.00 598.00
M 422.00 417.00 
C 467.90 424.45 491.20 484.24 462.08 521.08 C 432.97 557.92 374.26 552.34 354.70 508.31 C 335.13 464.27 370.50 408.64 422.00 417.00 Z"/>
</g>
<g fill="#007E6B" fill-opacity="1.00" stroke="None">
<path d="
M 799.00 352.00 
C 798.93 368.47 790.52 385.37 785.93 401.93 C 781.33 418.48 775.36 434.81 770.32 451.32 C 765.28 467.83 760.17 484.25 754.78 500.78 C 749.39 517.30 744.83 533.37 738.98 549.98 C 733.12 566.58 729.63 581.99 722.77 598.77 C 715.92 615.55 688.19 615.15 671.68 611.32 C 655.17 607.49 653.36 584.66 646.93 571.07 C 640.50 557.49 635.28 538.51 628.92 524.08 C 622.56 509.65 618.24 491.39 610.00 478.00
C 604.98 491.62 600.38 504.00 595.93 517.93 C 591.48 531.85 586.87 542.84 582.32 557.32 C 577.77 571.80 573.31 580.85 568.78 596.78 C 564.24 612.70 545.66 612.00 531.00 612.00
C 526.18 612.47 520.85 613.00 516.00 612.00
C 501.81 611.58 502.20 593.91 499.00 584.00
C 475.96 599.55 450.14 614.00 421.00 614.00
C 416.91 614.40 412.02 614.39 408.00 614.00
C 386.21 614.00 365.96 607.38 347.00 598.00
C 351.56 602.88 356.15 608.84 361.75 613.25 C 367.35 617.65 371.58 623.73 377.25 627.75 C 382.91 631.77 386.50 637.70 391.75 642.25 C 397.01 646.79 401.65 652.47 406.75 657.25 C 411.85 662.02 416.74 667.39 421.75 672.25 C 426.76 677.10 431.27 681.85 436.25 686.75 C 441.22 691.65 446.28 696.81 451.25 701.75 C 456.22 706.69 461.30 711.81 466.25 716.75 C 471.19 721.69 475.81 726.30 480.75 731.25 C 485.69 736.19 490.79 741.29 495.75 746.25 C 500.71 751.20 505.81 756.31 510.75 761.25 C 515.70 766.19 520.31 770.81 525.25 775.75 C 530.19 780.69 535.30 785.80 540.25 790.75 C 545.20 795.71 550.33 800.81 555.25 805.75 C 560.17 810.69 564.85 815.31 569.75 820.25 C 574.65 825.18 579.88 830.32 584.75 835.25 C 589.62 840.18 595.00 845.37 599.75 850.25 C 604.50 855.13 609.75 859.95 614.25 864.75 C 618.74 869.56 625.26 875.09 629.25 879.75 C 633.23 884.42 641.55 890.66 644.75 894.25 C 647.95 897.84 659.33 906.21 657.00 909.00
C 741.04 883.14 809.81 837.79 868.25 767.25 C 926.68 696.71 957.75 603.26 965.00 512.00
C 963.05 516.42 951.58 503.11 947.75 499.25 C 943.93 495.39 936.00 487.51 931.25 482.75 C 926.50 477.99 919.92 471.42 914.75 466.25 C 909.58 461.08 903.62 455.11 898.25 449.75 C 892.88 444.40 887.24 438.70 881.75 433.25 C 876.27 427.80 870.27 421.70 864.75 416.25 C 859.23 410.80 853.77 405.10 848.25 399.75 C 842.73 394.41 837.28 388.39 831.75 383.25 C 826.22 378.11 820.81 371.45 815.25 366.75 C 809.68 362.05 804.67 353.57 799.00 352.00 Z"/>
</g>
<g fill="#007E6B" fill-opacity="1.00" stroke="None">
<path d="
M 707.00 426.00 
C 705.43 421.12 696.22 417.59 693.25 412.75 C 690.28 407.92 684.07 404.32 680.25 399.75 C 676.43 395.19 670.95 390.67 666.75 386.25 C 662.56 381.83 658.20 377.51 653.75 373.25 C 649.30 368.99 645.59 363.92 641.00 360.00
C 659.23 401.89 672.41 446.04 688.00 489.00
C 695.64 469.19 702.07 447.20 707.00 426.00 Z"/>
</g>
<g fill="#007E6B" fill-opacity="1.00" stroke="None">
<path d="
M 556.00 437.00 
C 541.00 425.34 527.59 409.46 514.00 396.00
C 530.13 417.75 542.50 442.58 544.00 470.00
C 549.67 460.51 552.66 448.01 556.00 437.00 Z"/>
</g>
<g fill="#007E6B" fill-opacity="1.00" stroke="None">
<path d="
M 422.00 417.00 
C 370.50 408.64 335.13 464.27 354.70 508.31 C 374.26 552.34 432.97 557.92 462.08 521.08 C 491.20 484.24 467.90 424.45 422.00 417.00 Z"/>
</g>
<g fill="#00A085" fill-opacity="1.00" stroke="None">
<path d="
M 531.00 612.00 
C 526.07 612.00 520.91 612.45 516.00 612.00
C 520.85 613.00 526.18 612.47 531.00 612.00 Z"/>
</g>
<g fill="#00A085" fill-opacity="1.00" stroke="None">
<path d="
M 421.00 614.00 
C 416.67 614.00 412.33 614.00 408.00 614.00
C 412.02 614.39 416.91 614.40 421.00 614.00 Z"/>
</g>
</svg>