<svg xmlns="http://www.w3.org/2000/svg"
viewBox = "0 0 600 600"
width="600"
height="600">
<g fill="None" fill-opacity="0.0" stroke="#10A28A" stroke-opacity="1.00" stroke-width="0.3"><path d="
M 0.00 600.00 
L 298.00 600.00
C 235.90 533.20 165.52 471.89 104.00 406.00
C 69.68 389.03 50.03 356.33 40.01 319.99 C 29.99 283.65 40.05 234.60 66.30 204.30 C 92.56 174.01 126.84 157.43 168.00 156.00 C 209.16 154.57 242.41 175.69 271.00 204.00
C 284.59 217.46 297.99 233.34 313.00 245.00
C 320.20 221.27 325.67 199.55 335.31 176.31 C 344.94 153.06 380.90 153.39 398.00 168.00
C 402.59 171.92 406.30 176.99 410.75 181.25 C 415.20 185.51 419.56 189.83 423.75 194.25 C 427.95 198.67 433.43 203.19 437.25 207.75 C 441.07 212.32 447.28 215.92 450.25 220.75 C 453.22 225.59 462.43 229.12 464.00 234.00
C 466.96 221.25 473.69 203.42 477.32 191.32 C 480.96 179.22 485.28 159.38 501.22 159.22 C 517.16 159.06 540.58 155.72 556.00 160.00
C 563.85 162.18 570.12 174.54 577.75 180.25 C 585.39 185.96 592.09 196.45 600.00 202.00
L 600.00 0.00
L 0.00 0.00
L 0.00 600.00 Z"/>
</g>
<g fill="None" fill-opacity="0.0" stroke="#F78926" stroke-opacity="1.00" stroke-width="0.3"><path d="
M 104.00 406.00 
C 128.11 417.92 159.36 425.20 187.00 422.00 C 214.64 418.80 233.68 405.95 256.00 392.00
C 258.58 400.87 259.62 420.94 273.00 420.00 C 286.39 419.06 304.89 423.28 316.23 417.23 C 327.57 411.18 327.17 398.36 331.92 387.92 C 336.68 377.49 338.98 364.51 343.78 353.78 C 348.57 343.04 350.25 330.81 354.93 319.93 C 359.61 309.04 361.99 296.84 367.00 286.00
C 375.24 299.39 379.56 317.65 385.92 332.08 C 392.28 346.51 397.50 365.49 403.93 379.07 C 410.36 392.66 412.17 415.49 428.68 419.32 C 445.19 423.15 472.92 423.55 479.77 406.77 C 486.62 389.99 490.13 374.58 495.98 357.98 C 501.83 341.37 506.39 325.30 511.78 308.78 C 517.17 292.25 522.28 275.83 527.32 259.32 C 532.36 242.81 538.33 226.48 542.93 209.93 C 547.52 193.37 555.93 176.47 556.00 160.00
C 540.58 155.72 517.16 159.06 501.22 159.22 C 485.28 159.38 480.96 179.22 477.32 191.32 C 473.69 203.42 466.96 221.25 464.00 234.00
C 459.05 255.26 452.15 276.03 446.00 297.00
C 428.40 254.99 416.84 209.73 398.00 168.00
C 380.90 153.39 344.94 153.06 335.31 176.31 C 325.67 199.55 320.20 221.27 313.00 245.00
C 309.66 256.01 306.67 268.51 301.00 278.00
C 299.50 250.58 287.13 225.75 271.00 204.00
C 242.41 175.69 209.16 154.57 168.00 156.00 C 126.84 157.43 92.56 174.01 66.30 204.30 C 40.05 234.60 29.99 283.65 40.01 319.99 C 50.03 356.33 69.68 389.03 104.00 406.00
M 179.00 225.00 
C 224.90 232.45 248.20 292.24 219.08 329.08 C 189.97 365.92 131.26 360.34 111.69 316.31 C 92.13 272.27 127.50 216.64 179.00 225.00 Z"/>
</g>
<g fill="None" fill-opacity="0.0" stroke="#078370" stroke-opacity="1.00" stroke-width="0.3"><path d="
M 556.00 160.00 
C 555.93 176.47 547.52 193.37 542.93 209.93 C 538.33 226.48 532.36 242.81 527.32 259.32 C 522.28 275.83 517.17 292.25 511.78 308.78 C 506.39 325.30 501.83 341.37 495.98 357.98 C 490.13 374.58 486.62 389.99 479.77 406.77 C 472.92 423.55 445.19 423.15 428.68 419.32 C 412.17 415.49 410.36 392.66 403.93 379.07 C 397.50 365.49 392.28 346.51 385.92 332.08 C 379.56 317.65 375.24 299.39 367.00 286.00
C 361.99 296.84 359.61 309.04 354.93 319.93 C 350.25 330.81 348.57 343.04 343.78 353.78 C 338.98 364.51 336.68 377.49 331.92 387.92 C 327.17 398.36 327.57 411.18 316.23 417.23 C 304.89 423.28 286.39 419.06 273.00 420.00 C 259.62 420.94 258.58 400.87 256.00 392.00
C 233.68 405.95 214.64 418.80 187.00 422.00 C 159.36 425.20 128.11 417.92 104.00 406.00
C 165.52 471.89 235.90 533.20 298.00 600.00
L 600.00 600.00
L 600.00 202.00
C 592.09 196.45 585.39 185.96 577.75 180.25 C 570.12 174.54 563.85 162.18 556.00 160.00 Z"/>
</g>
<g fill="None" fill-opacity="0.0" stroke="#078370" stroke-opacity="1.00" stroke-width="0.3"><path d="
M 464.00 234.00 
C 462.43 229.12 453.22 225.59 450.25 220.75 C 447.28 215.92 441.07 212.32 437.25 207.75 C 433.43 203.19 427.95 198.67 423.75 194.25 C 419.56 189.83 415.20 185.51 410.75 181.25 C 406.30 176.99 402.59 171.92 398.00 168.00
C 416.84 209.73 428.40 254.99 446.00 297.00
C 452.15 276.03 459.05 255.26 464.00 234.00 Z"/>
</g>
<g fill="None" fill-opacity="0.0" stroke="#078370" stroke-opacity="1.00" stroke-width="0.3"><path d="
M 313.00 245.00 
C 297.99 233.34 284.59 217.46 271.00 204.00
C 287.13 225.75 299.50 250.58 301.00 278.00
C 306.67 268.51 309.66 256.01 313.00 245.00 Z"/>
</g>
<g fill="None" fill-opacity="0.0" stroke="#078370" stroke-opacity="1.00" stroke-width="0.3"><path d="
M 179.00 225.00 
C 127.50 216.64 92.13 272.27 111.69 316.31 C 131.26 360.34 189.97 365.92 219.08 329.08 C 248.20 292.24 224.90 232.45 179.00 225.00 Z"/>
</g>
<g fill="#10A28A" fill-opacity="1.00" stroke="None"><path d="
M 0.00 600.00 
L 298.00 600.00
C 235.90 533.20 165.52 471.89 104.00 406.00
C 69.68 389.03 50.03 356.33 40.01 319.99 C 29.99 283.65 40.05 234.60 66.30 204.30 C 92.56 174.01 126.84 157.43 168.00 156.00 C 209.16 154.57 242.41 175.69 271.00 204.00
C 284.59 217.46 297.99 233.34 313.00 245.00
C 320.20 221.27 325.67 199.55 335.31 176.31 C 344.94 153.06 380.90 153.39 398.00 168.00
C 402.59 171.92 406.30 176.99 410.75 181.25 C 415.20 185.51 419.56 189.83 423.75 194.25 C 427.95 198.67 433.43 203.19 437.25 207.75 C 441.07 212.32 447.28 215.92 450.25 220.75 C 453.22 225.59 462.43 229.12 464.00 234.00
C 466.96 221.25 473.69 203.42 477.32 191.32 C 480.96 179.22 485.28 159.38 501.22 159.22 C 517.16 159.06 540.58 155.72 556.00 160.00
C 563.85 162.18 570.12 174.54 577.75 180.25 C 585.39 185.96 592.09 196.45 600.00 202.00
L 600.00 0.00
L 0.00 0.00
L 0.00 600.00 Z"/>
</g>
<g fill="#F78926" fill-opacity="1.00" stroke="None"><path d="
M 104.00 406.00 
C 128.11 417.92 159.36 425.20 187.00 422.00 C 214.64 418.80 233.68 405.95 256.00 392.00
C 258.58 400.87 259.62 420.94 273.00 420.00 C 286.39 419.06 304.89 423.28 316.23 417.23 C 327.57 411.18 327.17 398.36 331.92 387.92 C 336.68 377.49 338.98 364.51 343.78 353.78 C 348.57 343.04 350.25 330.81 354.93 319.93 C 359.61 309.04 361.99 296.84 367.00 286.00
C 375.24 299.39 379.56 317.65 385.92 332.08 C 392.28 346.51 397.50 365.49 403.93 379.07 C 410.36 392.66 412.17 415.49 428.68 419.32 C 445.19 423.15 472.92 423.55 479.77 406.77 C 486.62 389.99 490.13 374.58 495.98 357.98 C 501.83 341.37 506.39 325.30 511.78 308.78 C 517.17 292.25 522.28 275.83 527.32 259.32 C 532.36 242.81 538.33 226.48 542.93 209.93 C 547.52 193.37 555.93 176.47 556.00 160.00
C 540.58 155.72 517.16 159.06 501.22 159.22 C 485.28 159.38 480.96 179.22 477.32 191.32 C 473.69 203.42 466.96 221.25 464.00 234.00
C 459.05 255.26 452.15 276.03 446.00 297.00
C 428.40 254.99 416.84 209.73 398.00 168.00
C 380.90 153.39 344.94 153.06 335.31 176.31 C 325.67 199.55 320.20 221.27 313.00 245.00
C 309.66 256.01 306.67 268.51 301.00 278.00
C 299.50 250.58 287.13 225.75 271.00 204.00
C 242.41 175.69 209.16 154.57 168.00 156.00 C 126.84 157.43 92.56 174.01 66.30 204.30 C 40.05 234.60 29.99 283.65 40.01 319.99 C 50.03 356.33 69.68 389.03 104.00 406.00 Z"/>
</g>
<g fill="#078370" fill-opacity="1.00" stroke="None"><path d="
M 556.00 160.00 
C 555.93 176.47 547.52 193.37 542.93 209.93 C 538.33 226.48 532.36 242.81 527.32 259.32 C 522.28 275.83 517.17 292.25 511.78 308.78 C 506.39 325.30 501.83 341.37 495.98 357.98 C 490.13 374.58 486.62 389.99 479.77 406.77 C 472.92 423.55 445.19 423.15 428.68 419.32 C 412.17 415.49 410.36 392.66 403.93 379.07 C 397.50 365.49 392.28 346.51 385.92 332.08 C 379.56 317.65 375.24 299.39 367.00 286.00
C 361.99 296.84 359.61 309.04 354.93 319.93 C 350.25 330.81 348.57 343.04 343.78 353.78 C 338.98 364.51 336.68 377.49 331.92 387.92 C 327.17 398.36 327.57 411.18 316.23 417.23 C 304.89 423.28 286.39 419.06 273.00 420.00 C 259.62 420.94 258.58 400.87 256.00 392.00
C 233.68 405.95 214.64 418.80 187.00 422.00 C 159.36 425.20 128.11 417.92 104.00 406.00
C 165.52 471.89 235.90 533.20 298.00 600.00
L 600.00 600.00
L 600.00 202.00
C 592.09 196.45 585.39 185.96 577.75 180.25 C 570.12 174.54 563.85 162.18 556.00 160.00 Z"/>
</g>
<g fill="#078370" fill-opacity="1.00" stroke="None"><path d="
M 464.00 234.00 
C 462.43 229.12 453.22 225.59 450.25 220.75 C 447.28 215.92 441.07 212.32 437.25 207.75 C 433.43 203.19 427.95 198.67 423.75 194.25 C 419.56 189.83 415.20 185.51 410.75 181.25 C 406.30 176.99 402.59 171.92 398.00 168.00
C 416.84 209.73 428.40 254.99 446.00 297.00
C 452.15 276.03 459.05 255.26 464.00 234.00 Z"/>
</g>
<g fill="#078370" fill-opacity="1.00" stroke="None"><path d="
M 313.00 245.00 
C 297.99 233.34 284.59 217.46 271.00 204.00
C 287.13 225.75 299.50 250.58 301.00 278.00
C 306.67 268.51 309.66 256.01 313.00 245.00 Z"/>
</g>
<g fill="#078370" fill-opacity="1.00" stroke="None"><path d="
M 179.00 225.00 
C 127.50 216.64 92.13 272.27 111.69 316.31 C 131.26 360.34 189.97 365.92 219.08 329.08 C 248.20 292.24 224.90 232.45 179.00 225.00 Z"/>
</g>
</svg>