<svg id="SvgjsSvg1015" width="288" height="288" xmlns="http://www.w3.org/2000/svg" version="1.1" xmlns:xlink="http://www.w3.org/1999/xlink" xmlns:svgjs="http://svgjs.com/svgjs"><rect id="SvgjsRect1020" width="288" height="288" rx="35" ry="35" transform="matrix(0.77,0,0,0.77,33.120000000000005,33.120000000000005)" fill="#19a389"></rect><defs id="SvgjsDefs1016"></defs><g id="SvgjsG1017" transform="matrix(0.7,0,0,0.7,43.2,43.2)"><svg xmlns="http://www.w3.org/2000/svg" fill="none" viewBox="0 0 24 24" width="288" height="288"><path fill="#ffffff" d="M3 6a1 1 0 0 1 1-1h16a1 1 0 1 1 0 2H4a1 1 0 0 1-1-1zm0 6a1 1 0 0 1 1-1h16a1 1 0 1 1 0 2H4a1 1 0 0 1-1-1zm1 5a1 1 0 1 0 0 2h16a1 1 0 1 0 0-2H4z" class="color000 svgShape"></path></svg></g></svg>